<?xml version="1.0" standalone="no"?>
<!DOCTYPE svg PUBLIC "-//W3C//DTD SVG 20010904//EN"
 "http://www.w3.org/TR/2001/REC-SVG-20010904/DTD/svg10.dtd">
<svg version="1.0" xmlns="http://www.w3.org/2000/svg"
 width="177.000000pt" height="177.000000pt" viewBox="0 0 177.000000 177.000000"
 preserveAspectRatio="xMidYMid meet">
<metadata>
Created by potrace 1.14, written by Peter Selinger 2001-2017
</metadata>
<g transform="translate(0.000000,177.000000) scale(0.100000,-0.100000)"
fill="#000000" stroke="none">
<path d="M870 1545 c0 -12 -13 -15 -60 -15 -47 0 -60 -3 -60 -15 0 -10 -10
-15 -31 -15 -26 0 -31 -3 -26 -20 3 -11 1 -20 -4 -20 -5 0 -9 -6 -9 -14 0 -10
-8 -13 -22 -11 -27 6 -68 -33 -48 -45 10 -6 9 -9 -1 -12 -18 -6 -22 -75 -7
-105 7 -14 20 -23 35 -23 16 0 23 -6 23 -19 0 -10 6 -21 13 -24 7 -3 14 -21
15 -42 2 -20 9 -44 17 -52 8 -8 15 -21 15 -29 0 -8 6 -14 14 -14 9 0 14 -9 14
-22 -1 -13 -1 -47 0 -77 2 -42 5 -52 16 -48 11 4 13 1 9 -10 -5 -12 -2 -15 10
-10 14 5 16 3 8 -11 -5 -9 -19 -27 -30 -39 -12 -12 -21 -27 -21 -33 0 -5 -5
-10 -11 -10 -6 0 -9 -6 -6 -13 6 -16 -18 -64 -25 -51 -7 12 -22 67 -20 75 1 4
-9 18 -21 31 -22 24 -23 24 -260 26 -147 1 -246 -2 -258 -9 -27 -14 -24 -43
17 -187 20 -69 37 -135 39 -147 1 -11 7 -31 12 -45 6 -14 8 -31 6 -37 -3 -7 0
-13 5 -13 5 0 8 -11 7 -25 -2 -14 1 -25 6 -25 5 0 9 -7 9 -15 0 -31 23 -64 49
-68 14 -2 -29 -5 -96 -6 -97 -1 -127 -4 -142 -17 -27 -23 -15 -50 27 -62 24
-7 301 -10 802 -11 821 0 830 0 830 49 0 15 -7 20 -27 20 -22 0 -25 2 -13 10
11 7 -3 10 -47 10 -35 0 -63 4 -63 10 0 6 7 10 15 10 9 0 15 9 15 24 0 13 7
27 15 30 12 4 15 17 12 56 -3 32 0 55 7 63 18 18 20 114 3 131 -10 10 -13 30
-11 61 3 34 0 47 -11 51 -9 4 -15 19 -15 40 0 23 -5 34 -15 34 -8 0 -22 14
-30 30 -9 17 -19 29 -24 26 -4 -3 -15 6 -25 20 -11 13 -27 24 -37 24 -10 0
-20 9 -24 19 -3 11 -12 18 -19 15 -17 -7 -61 37 -61 61 0 13 -8 21 -22 23 -13
2 -23 8 -23 13 0 14 -28 11 -33 -3 -3 -10 -7 -10 -19 -1 -8 7 -17 11 -20 8 -3
-3 -11 2 -19 11 -11 14 -11 18 -1 21 6 3 10 9 6 14 -3 5 1 9 9 9 8 0 18 11 21
25 4 14 13 25 21 25 22 0 22 248 0 256 -8 4 -15 14 -15 23 0 9 -9 22 -20 29
-11 7 -20 19 -20 27 0 11 -11 15 -40 15 -29 0 -40 4 -40 15 0 8 -7 15 -15 15
-8 0 -15 -4 -15 -10 0 -5 -5 -10 -11 -10 -5 0 -7 5 -4 10 4 6 -15 10 -49 10
-43 0 -56 3 -56 15 0 20 -17 19 -29 -2 -10 -17 -10 -17 -11 -1 0 11 -5 15 -15
12 -8 -4 -12 -10 -9 -15 3 -5 -4 -9 -15 -9 -12 0 -21 7 -21 15 0 8 -4 15 -10
15 -5 0 -10 -7 -10 -15z m-653 -1261 c-3 -3 -12 -4 -19 -1 -8 3 -5 6 6 6 11 1
17 -2 13 -5z m40 0 c-3 -3 -12 -4 -19 -1 -8 3 -5 6 6 6 11 1 17 -2 13 -5z m56
-1 c-7 -2 -21 -2 -30 0 -10 3 -4 5 12 5 17 0 24 -2 18 -5z m1295 0 c-10 -2
-28 -2 -40 0 -13 2 -5 4 17 4 22 1 32 -1 23 -4z"/>
</g>
</svg>
